<?xml version="1.0" standalone="no"?>
<!DOCTYPE svg PUBLIC "-//W3C//DTD SVG 20010904//EN"
 "http://www.w3.org/TR/2001/REC-SVG-20010904/DTD/svg10.dtd">
<svg version="1.0" xmlns="http://www.w3.org/2000/svg"
 width="1280.000000pt" height="640.000000pt" viewBox="0 0 1280.000000 640.000000"
 preserveAspectRatio="xMidYMid meet">
<metadata>
Created by potrace 1.15, written by Peter Selinger 2001-2017
</metadata>
<g transform="translate(0.000000,640.000000) scale(0.100000,-0.100000)"
fill="#000000" stroke="none">
<path d="M12372 5180 c-26 -44 -44 -94 -55 -146 -9 -43 -30 -144 -47 -224 -17
-80 -35 -167 -41 -195 -19 -99 41 -89 -487 -81 l-466 8 -90 36 c-167 66 -259
151 -345 316 l-34 66 -71 2 c-39 0 -295 1 -568 2 l-497 1 -43 43 -44 42 -362
0 c-330 0 -1002 17 -1010 25 -2 2 1 12 7 23 8 15 5 24 -17 44 -60 53 -57 53
-105 14 -24 -20 -47 -36 -49 -36 -3 0 -21 23 -39 51 -29 46 -35 50 -63 45 -17
-2 -67 -10 -111 -17 -56 -9 -90 -20 -113 -37 l-32 -25 -193 7 c-105 3 -238 9
-294 13 l-101 6 -31 -60 -30 -60 -538 -6 c-296 -4 -995 -12 -1553 -18 l-1015
-12 -41 -36 c-23 -20 -136 -125 -252 -233 l-210 -198 -114 -15 c-173 -24 -264
-49 -456 -124 -194 -76 -264 -96 -362 -106 -57 -5 -76 -2 -150 26 -162 60
-204 67 -462 80 -588 30 -1756 -52 -1819 -127 -16 -19 -36 -149 -50 -319 -18
-217 -18 -898 -1 -980 20 -92 21 -94 53 -111 40 -20 266 -20 409 1 358 53 973
236 1895 563 384 136 1031 379 1077 403 12 7 76 16 143 20 138 9 149 5 190
-65 l26 -44 -21 -69 c-35 -113 -69 -207 -156 -433 -123 -321 -201 -573 -189
-612 11 -34 64 -87 115 -113 76 -38 214 -68 325 -69 89 -1 106 2 150 24 35 18
55 37 68 62 18 36 18 37 -8 88 l-26 52 126 316 c213 534 234 580 270 602 45
28 55 25 55 -13 0 -51 31 -99 80 -124 43 -22 52 -23 357 -23 349 0 360 2 409
64 25 32 34 36 73 36 l44 0 -6 -55 c-4 -37 -18 -78 -41 -120 -20 -36 -33 -65
-31 -65 3 0 24 12 46 27 47 31 72 75 89 156 6 31 16 57 21 57 5 0 18 9 29 20
l20 20 0 -87 c0 -220 42 -585 90 -776 64 -258 150 -411 388 -692 113 -132 510
-527 694 -688 117 -104 145 -133 140 -149 -3 -13 -1 -19 6 -17 23 8 752 731
746 740 -3 5 -12 8 -19 7 -36 -8 -498 424 -665 621 -279 329 -335 481 -347
946 -7 276 3 501 22 485 10 -8 95 -8 309 1 293 11 295 11 324 -10 57 -40 121
-61 187 -61 67 0 99 10 294 89 57 24 131 47 165 51 87 12 416 28 816 40 384
11 734 27 795 36 33 5 48 15 80 54 l40 49 1312 1 c1178 0 1318 -2 1375 -16 60
-16 178 -15 218 0 8 4 31 36 49 71 l35 65 62 0 c61 0 62 0 68 31 3 17 6 62 6
100 l0 69 -74 0 c-71 0 -74 1 -84 28 -6 15 -22 133 -36 262 -22 200 -24 245
-14 303 6 37 9 69 7 71 -2 2 -46 15 -96 29 l-93 24 -38 -67z m143 -414 c93
-39 44 -126 -72 -126 -43 0 -101 26 -117 53 -35 57 101 110 189 73z m-3854
-45 c36 -37 38 -79 5 -118 l-24 -28 -175 -3 c-196 -4 -224 3 -247 58 -10 24
-10 36 0 60 22 53 46 59 238 60 l174 0 29 -29z m718 4 c40 -20 57 -66 41 -105
-23 -55 -51 -62 -247 -58 l-175 3 -24 28 c-39 46 -25 115 30 137 11 5 94 9
184 9 124 1 170 -2 191 -14z m1081 -65 c0 -6 56 -10 149 -10 l149 0 47 -52 48
-53 -563 -3 c-491 -2 -565 0 -580 13 -9 8 -21 15 -26 15 -5 0 -9 18 -9 40 -1
32 3 40 16 40 10 0 21 5 24 10 4 6 140 10 376 10 239 0 369 -4 369 -10z m360
-355 l0 -25 -572 2 c-374 2 -572 6 -575 13 -9 29 50 33 595 34 l552 1 0 -25z
m320 0 c0 -25 -1 -25 -85 -25 -84 0 -85 0 -85 25 0 25 1 25 85 25 84 0 85 0
85 -25z m1130 6 c5 -11 10 -23 10 -28 0 -4 -218 -7 -485 -5 -279 1 -485 6
-485 11 0 5 -3 16 -6 25 -6 14 40 16 475 16 465 0 481 -1 491 -19z m-6930
-542 c0 -213 -4 -239 -39 -266 -21 -16 -652 -18 -683 -2 -40 21 -48 66 -48
269 l0 190 115 0 c63 0 118 0 122 0 4 1 13 -38 20 -86 20 -138 43 -172 187
-278 21 -16 37 -25 34 -20 -89 184 -104 239 -92 326 l9 63 155 5 c85 3 170 7
188 8 l32 2 0 -211z"/>
</g>
</svg>
