<?xml version="1.0" standalone="no"?>
<!DOCTYPE svg PUBLIC "-//W3C//DTD SVG 20010904//EN"
 "http://www.w3.org/TR/2001/REC-SVG-20010904/DTD/svg10.dtd">
<svg version="1.0" xmlns="http://www.w3.org/2000/svg"
 width="1280.000000pt" height="866.000000pt" viewBox="0 0 1280.000000 866.000000"
 preserveAspectRatio="xMidYMid meet">
<g transform="translate(0.000000,866.000000) scale(0.100000,-0.100000)"
fill="#000000" stroke="none">
<path d="M6780 8649 c-124 -4 -700 -12 -1280 -18 -580 -7 -1397 -16 -1815 -21
-418 -5 -1244 -15 -1835 -21 -591 -6 -1078 -14 -1082 -18 -3 -3 -11 -584 -18
-1291 -6 -707 -15 -1766 -20 -2355 -6 -588 -10 -1257 -10 -1486 l0 -416 248
-6 c136 -4 324 -7 417 -7 l170 0 115 106 c394 364 729 565 1013 605 341 50
872 -152 1483 -564 l140 -94 349 -7 c1880 -37 2345 -46 2493 -47 l144 -2 29
29 29 29 -7 2783 -6 2782 -26 6 c-14 3 -36 10 -49 15 -25 10 -145 10 -482 -2z"/>
<path d="M10040 6523 c-1145 -18 -1963 -33 -1967 -37 -5 -5 -1 -380 28 -2541
21 -1606 25 -1920 20 -1934 -4 -12 -297 -13 -1937 -10 l-1932 4 -43 90 c-65
135 -167 281 -271 387 -202 206 -410 324 -705 400 -124 32 -134 33 -333 33
-219 0 -288 -9 -449 -61 -99 -32 -275 -119 -376 -185 -108 -71 -315 -279 -389
-391 -32 -49 -63 -88 -69 -88 -7 1 -131 -1 -277 -4 -146 -3 -507 -5 -802 -6
l-538 0 0 -117 c0 -65 3 -176 7 -247 l6 -129 716 4 716 4 0 -205 c1 -174 4
-221 24 -310 64 -299 189 -529 400 -741 249 -249 481 -359 902 -428 83 -14
176 -14 248 -1 279 50 382 80 531 155 185 93 387 263 515 434 161 214 269 509
281 771 3 58 7 115 10 128 l5 23 2067 -7 2068 -7 55 25 c37 17 70 43 101 79
43 50 48 63 73 174 100 447 262 798 470 1014 322 336 997 518 1628 440 532
-66 864 -301 1062 -751 95 -216 195 -593 250 -943 9 -55 19 -103 23 -107 6 -6
633 40 640 47 2 2 -1 38 -7 82 -6 43 -20 267 -32 498 -11 231 -29 569 -38 750
l-19 330 -952 1693 -953 1692 -291 -2 c-160 -1 -370 -4 -466 -5z m-267 -843
c538 -38 982 -72 986 -75 5 -2 46 -73 91 -157 239 -441 628 -1158 815 -1503
376 -689 364 -665 329 -699 -27 -27 -58 -18 -211 63 -81 43 -791 413 -1578
822 -786 409 -1437 751 -1445 759 -12 12 -19 59 -29 195 -7 99 -19 263 -26
365 -25 325 -27 311 48 303 23 -2 482 -35 1020 -73z"/>
<path d="M10245 2966 c-572 -96 -1024 -494 -1180 -1039 -46 -161 -50 -195 -50
-402 0 -156 5 -219 19 -285 97 -448 377 -816 773 -1014 112 -56 233 -98 364
-128 89 -20 132 -23 294 -23 163 0 205 3 295 23 288 65 523 193 731 401 216
217 344 458 405 766 28 136 25 405 -5 545 -60 280 -182 514 -369 712 -215 225
-456 361 -765 429 -119 27 -394 34 -512 15z"/>
</g>
</svg>
