<?xml version="1.0" standalone="no"?>
<!DOCTYPE svg PUBLIC "-//W3C//DTD SVG 20010904//EN"
 "http://www.w3.org/TR/2001/REC-SVG-20010904/DTD/svg10.dtd">
<svg version="1.0" xmlns="http://www.w3.org/2000/svg"
 width="1280.000000pt" height="646.000000pt" viewBox="0 0 1280.000000 646.000000"
 preserveAspectRatio="xMidYMid meet">
<metadata>
Created by potrace 1.15, written by Peter Selinger 2001-2017
</metadata>
<g transform="translate(0.000000,646.000000) scale(0.100000,-0.100000)"
fill="#000000" stroke="none">
<path d="M12503 6448 c-13 -6 -35 -32 -49 -57 -86 -150 -175 -190 -438 -195
-139 -3 -171 -7 -203 -23 -55 -29 -77 -65 -83 -136 l-5 -62 -2615 0 -2615 0
-3 50 c-4 67 -25 87 -129 125 l-85 30 -1370 -2 -1370 -3 -25 -29 c-23 -27 -24
-35 -18 -91 8 -75 -14 -149 -83 -280 l-47 -89 -64 3 c-172 7 -315 74 -512 241
-116 98 -172 123 -264 118 -58 -3 -80 -9 -113 -31 -55 -36 -98 -112 -113 -201
-20 -123 8 -170 112 -185 94 -13 148 -54 179 -137 54 -147 26 -352 -77 -547
-21 -40 -42 -75 -48 -80 -30 -22 -186 -59 -290 -68 -291 -25 -354 -106 -355
-451 l0 -128 -44 6 c-25 4 -111 3 -192 -1 -142 -7 -149 -8 -174 -34 -24 -24
-28 -37 -34 -121 -25 -344 -104 -668 -256 -1050 -128 -321 -242 -547 -585
-1165 -122 -220 -255 -465 -295 -544 -175 -352 -252 -609 -237 -800 10 -119
17 -133 112 -196 219 -146 528 -243 925 -292 201 -24 730 -24 985 0 387 38
942 133 1032 179 27 13 47 60 40 90 -3 13 -18 58 -33 101 l-28 78 28 85 c54
162 27 246 -139 438 -98 113 -108 131 -124 232 -11 73 -4 109 37 189 43 86 51
146 45 335 -6 185 8 382 32 450 50 143 196 253 349 263 l39 2 28 -83 c70 -206
145 -306 295 -392 276 -158 757 -212 1140 -129 342 74 591 237 703 462 62 124
71 174 81 422 5 121 12 231 16 245 13 44 36 70 98 113 l61 42 276 5 276 5 41
29 c125 86 171 273 172 688 l0 228 3100 2 3100 3 27 28 28 27 3 370 c2 222 6
370 12 370 5 0 16 13 25 30 13 25 15 123 15 750 l0 722 -29 29 c-29 29 -31 29
-138 28 -59 0 -118 -5 -130 -11z m-7833 -3458 c159 -19 270 -62 348 -133 54
-50 80 -104 88 -185 14 -130 -57 -232 -216 -311 -260 -127 -730 -146 -950 -38
-62 30 -67 36 -103 107 -48 95 -61 210 -33 285 15 39 95 125 115 125 3 0 19
-32 34 -70 54 -132 162 -276 290 -387 106 -92 111 -93 251 -37 119 47 156 75
156 118 0 24 -19 55 -95 151 -81 103 -140 225 -169 347 -5 23 -3 27 21 31 56
8 181 7 263 -3z"/>
</g>
</svg>
