<?xml version="1.0" standalone="no"?>
<!DOCTYPE svg PUBLIC "-//W3C//DTD SVG 20010904//EN"
 "http://www.w3.org/TR/2001/REC-SVG-20010904/DTD/svg10.dtd">
<svg version="1.0" xmlns="http://www.w3.org/2000/svg"
 width="1280.000000pt" height="640.000000pt" viewBox="0 0 1280.000000 640.000000"
 preserveAspectRatio="xMidYMid meet">
<metadata>
Created by potrace 1.15, written by Peter Selinger 2001-2017
</metadata>
<g transform="translate(0.000000,640.000000) scale(0.100000,-0.100000)"
fill="#000000" stroke="none">
<path d="M6920 4419 c0 -52 -3 -62 -20 -66 -11 -3 -20 -14 -20 -24 0 -18 -14
-19 -365 -19 l-365 0 0 25 0 25 -147 0 c-140 0 -150 -1 -188 -25 l-40 -24
-524 -1 -523 0 -32 -34 c-17 -18 -37 -41 -44 -50 -17 -21 -35 -21 -28 2 4 12
-8 26 -45 51 -27 19 -68 56 -91 83 -35 42 -45 49 -72 46 -45 -4 -47 -33 -3
-54 26 -12 38 -26 46 -55 7 -22 24 -48 41 -61 42 -30 38 -51 -12 -74 -68 -30
-152 -98 -182 -145 l-28 -44 -507 -184 c-449 -163 -514 -185 -581 -189 -102
-6 -146 9 -239 78 -44 33 -92 63 -108 66 -15 3 -656 -78 -1423 -181 -1444
-193 -1420 -189 -1420 -232 0 -7 13 -45 29 -85 72 -184 123 -378 142 -544 13
-124 -1 -289 -42 -485 -56 -264 -56 -269 -34 -285 10 -8 28 -11 39 -8 22 7
771 263 1326 454 173 60 396 136 495 170 99 34 322 110 495 170 173 60 540
186 815 280 275 94 644 221 820 282 176 60 341 117 366 125 43 15 48 15 84 -3
32 -15 47 -34 82 -99 23 -44 55 -90 70 -103 128 -104 465 -38 534 104 13 27
23 72 26 112 2 37 6 77 9 89 9 47 34 52 350 74 254 17 304 23 332 40 18 10 51
19 74 19 31 0 41 4 45 20 5 19 14 20 323 20 l318 0 6 -34 c4 -19 16 -46 27
-60 24 -31 68 -34 145 -11 60 17 48 17 444 9 279 -6 351 -4 510 12 199 20 309
23 406 10 50 -7 65 -6 87 9 33 22 67 91 67 138 l0 37 1460 0 c1291 0 1460 -2
1460 -15 0 -12 18 -15 100 -15 82 0 100 3 100 15 0 13 76 15 620 15 l620 0 0
100 0 100 25 0 25 0 0 160 0 160 -172 0 -173 0 3 55 4 55 -46 0 -46 0 0 -55 0
-55 -2210 0 c-1958 0 -2210 2 -2210 15 0 13 -44 15 -338 15 l-339 0 -23 25
c-19 20 -33 25 -71 25 -26 0 -58 -4 -71 -9 -13 -5 -47 -12 -75 -16 l-53 -7 0
61 0 61 -30 0 -30 0 0 -61z m-1797 -886 c41 -21 67 -70 67 -126 0 -82 -35
-128 -134 -173 -84 -38 -231 -46 -299 -16 -62 28 -87 69 -87 145 0 51 4 62 29
88 16 16 40 29 53 29 21 0 23 -4 24 -58 0 -77 25 -126 81 -159 50 -29 70 -24
29 8 -83 65 -73 183 20 240 22 12 41 26 44 30 15 21 125 16 173 -8z"/>
</g>
</svg>
